<svg width="26" height="26" viewBox="0 0 26 26" fill="none" xmlns="http://www.w3.org/2000/svg">
<path d="M25.3174 24.2574L18.8949 17.8349C20.7264 15.7287 21.6686 12.9937 21.5228 10.2064C21.3771 7.41909 20.1548 4.79725 18.1136 2.89355C16.0725 0.989856 13.3719 -0.0469694 10.5812 0.00163479C7.79053 0.050239 5.12772 1.18048 3.1541 3.1541C1.18048 5.12772 0.050239 7.79053 0.00163479 10.5812C-0.0469694 13.3719 0.989856 16.0725 2.89355 18.1136C4.79725 20.1548 7.41909 21.3771 10.2064 21.5228C12.9937 21.6686 15.7287 20.7264 17.8349 18.8949L24.2574 25.3174C24.3996 25.4499 24.5877 25.522 24.782 25.5186C24.9763 25.5152 25.1616 25.4365 25.2991 25.2991C25.4365 25.1616 25.5152 24.9763 25.5186 24.782C25.522 24.5877 25.4499 24.3996 25.3174 24.2574ZM1.53744 10.7874C1.53744 8.95796 2.07994 7.16957 3.09635 5.64842C4.11275 4.12726 5.5574 2.94167 7.24762 2.24156C8.93784 1.54144 10.7977 1.35826 12.592 1.71518C14.3864 2.07209 16.0345 2.95307 17.3282 4.2467C18.6218 5.54034 19.5028 7.18853 19.8597 8.98286C20.2166 10.7772 20.0334 12.637 19.3333 14.3273C18.6332 16.0175 17.4476 17.4621 15.9265 18.4785C14.4053 19.4949 12.6169 20.0374 10.7874 20.0374C8.3351 20.0345 5.98406 19.059 4.24999 17.3249C2.51592 15.5908 1.54042 13.2398 1.53744 10.7874Z" fill="black"/>
</svg>
